<?xml version="1.0" encoding="UTF-8"?>
<svg version="1.1" xmlns="http://www.w3.org/2000/svg" width="1056" height="1008">
<path d="M0 0 C348.48 0 696.96 0 1056 0 C1056 332.64 1056 665.28 1056 1008 C707.52 1008 359.04 1008 0 1008 C0 675.36 0 342.72 0 0 Z " fill="#131312" transform="translate(0,0)"/>
<path d="M0 0 C0.97324219 0.21269531 1.94648438 0.42539062 2.94921875 0.64453125 C31.11959018 7.49917422 57.59193848 22.36799961 78.765625 41.95703125 C80.64950698 43.67953173 82.57134631 45.28116367 84.5625 46.875 C89.37628104 50.97855105 93.12660392 56.03109796 97 61 C97.74507813 61.94101562 98.49015625 62.88203125 99.2578125 63.8515625 C122.06459947 93.33350663 135.72836978 130.94780238 139 168 C139.0832251 168.90105469 139.1664502 169.80210937 139.25219727 170.73046875 C143.97215771 225.72161905 134.16756653 286.31058378 97.6875 329.75390625 C96.945 330.63949219 96.2025 331.52507812 95.4375 332.4375 C94.75558594 333.21996094 94.07367188 334.00242187 93.37109375 334.80859375 C91.77891559 336.84732358 91.77891559 336.84732358 92.22070312 338.93652344 C93.1383882 341.36643392 94.18338143 342.46415989 96.09765625 344.20703125 C96.73058594 344.79025146 97.36351562 345.37347168 98.015625 345.97436523 C98.69109375 346.58094971 99.3665625 347.18753418 100.0625 347.8125 C100.74699219 348.43906494 101.43148438 349.06562988 102.13671875 349.71118164 C106.14301082 353.36663753 110.20040163 356.96004364 114.3125 360.49609375 C116.71840621 362.64024628 118.95109532 364.94232287 121.2109375 367.23828125 C125.85228336 371.80868951 130.86959457 375.99187076 136 380 C134.63055898 382.94956528 133.12169591 385.52468811 131 388 C130.34 388 129.68 388 129 388 C129 388.66 129 389.32 129 390 C127.37512317 391.73084706 125.7160498 393.36232502 124 395 C122.67720336 396.3060826 121.35710375 397.61489988 120.0390625 398.92578125 C119.31976562 399.64056641 118.60046875 400.35535156 117.859375 401.09179688 C117.12203125 401.82462891 116.3846875 402.55746094 115.625 403.3125 C114.89539063 404.03373047 114.16578125 404.75496094 113.4140625 405.49804688 C109.26985741 409.62375105 105.31950436 413.82743218 101.5637207 418.3112793 C99.30220164 420.75357865 96.86316282 422.32400225 94 424 C83.22270937 414.34335685 72.57415667 404.56018748 62.02880859 394.65161133 C55.72178246 388.72860354 49.36890469 382.85633873 43 377 C38.45921105 378.3897341 34.20006083 380.19477879 29.87109375 382.12231445 C12.96571999 389.61992154 -3.76496759 394.01588759 -22 397 C-23.04438232 397.17724609 -24.08876465 397.35449219 -25.16479492 397.53710938 C-29.80966611 398.09772277 -34.36876829 398.18123118 -39.04296875 398.203125 C-40.00664871 398.20882507 -40.97032867 398.21452515 -41.96321106 398.22039795 C-44.0030509 398.22981676 -46.04290575 398.23636948 -48.08276367 398.24023438 C-51.13293927 398.24982838 -54.18240729 398.28083467 -57.23242188 398.3125 C-73.50008173 398.40073877 -89.34483937 396.85784571 -105.125 392.75 C-105.94009033 392.54093018 -106.75518066 392.33186035 -107.5949707 392.11645508 C-116.346235 389.77787909 -124.69201239 386.58673301 -133 383 C-133.70721191 382.69723145 -134.41442383 382.39446289 -135.14306641 382.08251953 C-151.33633483 375.05861963 -166.40667806 366.29410842 -179.48535156 354.37939453 C-181.02657546 352.97579766 -182.58571191 351.59442989 -184.1484375 350.21484375 C-204.96965787 331.68610682 -221.64807046 307.36159849 -231 281 C-231.35868164 280.00371582 -231.35868164 280.00371582 -231.72460938 278.98730469 C-234.86874659 270.18760215 -237.56045202 261.46859316 -239.3515625 252.28125 C-239.98978164 249.05170739 -240.76419203 245.88073189 -241.5625 242.6875 C-245.04543086 227.43679684 -245.40228324 212.1319767 -245.375 196.5625 C-245.37545319 195.55341583 -245.37590637 194.54433167 -245.37637329 193.50466919 C-245.35550241 177.65394356 -244.38260182 162.53202374 -241 147 C-240.76152344 145.77796875 -240.52304688 144.5559375 -240.27734375 143.296875 C-239.61949791 140.16127446 -238.83553798 137.09295638 -238 134 C-237.81244141 133.26072266 -237.62488281 132.52144531 -237.43164062 131.75976562 C-232.62633282 112.87860235 -225.24109087 95.57493823 -215 79 C-214.39929688 78.02289063 -213.79859375 77.04578125 -213.1796875 76.0390625 C-201.37996055 57.62358906 -186.73823872 41.74147928 -169 29 C-168.46133301 28.60103516 -167.92266602 28.20207031 -167.36767578 27.79101562 C-149.97581627 14.96781022 -129.892638 6.21758991 -109 1 C-108.28956543 0.81002441 -107.57913086 0.62004883 -106.84716797 0.42431641 C-72.09857791 -8.85435661 -34.85206292 -8.05832912 0 0 Z " fill="#8E8F91" transform="translate(398,311)"/>
<path d="M0 0 C12.69100785 -0.18530776 25.38169427 -0.32748079 38.07377911 -0.41449738 C43.96723376 -0.45626028 49.85976336 -0.51291022 55.75268555 -0.60351562 C61.4391419 -0.69040002 67.12470828 -0.73826582 72.81177711 -0.75901794 C74.98204375 -0.77380732 77.15226128 -0.80268865 79.32214928 -0.84584045 C82.36126528 -0.90387799 85.39669887 -0.91191518 88.4362793 -0.90820312 C89.33467529 -0.93696533 90.23307129 -0.96572754 91.15869141 -0.99536133 C93.68138035 -0.96199497 95.62398795 -0.85449887 98 0 C100.27297204 2.41242995 101.61506506 5.01171137 103 8 C103.57999756 8.9691333 104.15999512 9.9382666 104.75756836 10.93676758 C106.48585197 13.89439657 108.21341596 16.85242031 109.9375 19.8125 C110.53240234 20.82892578 111.12730469 21.84535156 111.74023438 22.89257812 C115.07097832 28.60398495 118.31377697 34.35193437 121.46118164 40.16625977 C124.350609 45.48715193 127.30617569 50.77157252 130.25 56.0625 C130.91491568 57.25819751 131.57979148 58.45391718 132.24462891 59.6496582 C133.23901601 61.43807354 134.23344361 63.22646623 135.22805786 65.01475525 C137.11484802 68.40723805 138.99990217 71.80067488 140.8828125 75.1953125 C144.78081619 82.22258414 148.68830248 89.24431657 152.625 96.25 C152.94903809 96.82709717 153.27307617 97.40419434 153.60693359 97.9987793 C158.41133108 106.53324778 163.2942853 115.0235459 168.16268921 123.52160645 C169.55215021 125.94722697 170.94092454 128.37324027 172.32958984 130.79931641 C173.03690291 132.03455394 173.74459594 133.26957398 174.45263672 134.50439453 C175.49808442 136.32787191 176.5421434 138.15213819 177.5859375 139.9765625 C178.1948584 141.03955566 178.8037793 142.10254883 179.43115234 143.19775391 C180.68708161 145.44107108 181.87940082 147.68715563 183 150 C188.09946799 140.95891424 193.17923338 131.90767441 198.19677734 122.82080078 C202.06143178 115.84081183 206.03273062 108.92194407 210 102 C218.35205968 87.42302088 226.67192012 72.83390476 234.84790039 58.15722656 C239.38521261 50.0378936 244.07438182 42.01413776 248.79223633 33.9987793 C253.72583053 25.57064324 258.40013018 17.01314677 263.00219727 8.40014648 C263.51322998 7.44438721 264.0242627 6.48862793 264.55078125 5.50390625 C265.00106689 4.65642822 265.45135254 3.8089502 265.9152832 2.93579102 C267 1 267 1 268 0 C271.04402422 -0.09530981 274.06531708 -0.12551639 277.10961914 -0.11352539 C278.06561508 -0.11367142 279.02161102 -0.11381744 280.00657654 -0.1139679 C283.18279245 -0.11326835 286.35895052 -0.10547403 289.53515625 -0.09765625 C291.73091093 -0.09579222 293.92666602 -0.09436825 296.12242126 -0.09336853 C301.91420633 -0.08954219 307.7059665 -0.07971091 313.4977417 -0.06866455 C319.40278791 -0.05845293 325.30783813 -0.05387145 331.21289062 -0.04882812 C342.80860472 -0.03808875 354.40430029 -0.02101093 366 0 C364.05052079 4.63995951 362.0220907 8.8236537 359.32421875 13.09765625 C358.6108106 14.23691985 357.89776828 15.3764126 357.18505859 16.51611328 C356.82232849 17.09306946 356.45959839 17.67002563 356.08587646 18.26446533 C354.35219679 21.03537093 352.65551532 23.82851695 350.95703125 26.62109375 C350.28212646 27.73025146 349.60722168 28.83940918 348.91186523 29.98217773 C348.21198212 31.13389428 347.51219575 32.28566962 346.8125 33.4375 C346.44826935 34.03684357 346.0840387 34.63618713 345.70877075 35.25369263 C340.22505319 44.28151516 334.80009672 53.34174698 329.4621582 62.45678711 C326.7362085 67.10300766 323.95638515 71.71010122 321.125 76.29296875 C317.02148394 82.93896004 313.03146389 89.64802453 309.0625 96.375 C307.64907824 98.76600418 306.23472263 101.1564554 304.8203125 103.546875 C304.15418945 104.67287109 303.48806641 105.79886719 302.80175781 106.95898438 C299.64149622 112.29288931 296.45006352 117.60786701 293.25244141 122.91943359 C284.56113534 137.35750577 275.90944814 151.81809354 267.3125 166.3125 C260.70937211 177.4452609 254.0830835 188.56328052 247.40917969 199.65380859 C245.88590263 202.18996461 244.36828979 204.72945315 242.8515625 207.26953125 C242.32232178 208.15479492 241.79308105 209.04005859 241.24780273 209.95214844 C240.25394333 211.61485298 239.2611512 213.27819625 238.26977539 214.94238281 C237.8133667 215.70518555 237.35695801 216.46798828 236.88671875 217.25390625 C236.45665055 217.98484591 236.02658236 218.71578558 235.58348179 219.46887493 C234 222 234 222 232.218009 224.33206654 C226.47606976 232.14794247 226.00171523 238.83318172 226.11352539 248.29370117 C226.10562094 249.80271224 226.09464908 251.31170984 226.08087158 252.82067871 C226.05233793 256.88433536 226.06628504 260.94682968 226.08831334 265.01048446 C226.10402511 269.2693097 226.08004188 273.52791485 226.06040955 277.78669739 C226.02926055 285.83651408 226.03340847 293.88590335 226.05048412 301.93574649 C226.07151811 312.82385197 226.03752796 323.71178 226.00674725 334.59983921 C225.9597502 351.73342585 225.98583808 368.8661019 226 386 C197.29 386 168.58 386 139 386 C139.020625 375.11773438 139.04125 364.23546875 139.0625 353.0234375 C139.05776976 346.11453973 139.05101456 339.20574138 139.03515625 332.296875 C139.01037936 321.33937121 138.99368705 310.38229717 139.03076172 299.42480469 C139.05773081 291.44276363 139.05634656 283.46130115 139.02174091 275.47928107 C139.00440613 271.25755759 139.00070857 267.03686943 139.03103638 262.81519699 C139.0592122 258.83046724 139.04909387 254.84756063 139.01126289 250.86292839 C139.00392562 249.41106076 139.00984744 247.95904648 139.03101921 246.50731468 C139.18679836 234.98862406 136.23637738 228.35784909 130 219 C129.00311106 217.32171346 128.01481448 215.63822394 127.04296875 213.9453125 C126.09233092 212.33784023 125.14046733 210.73109235 124.1875 209.125 C123.64963867 208.2170166 123.11177734 207.3090332 122.55761719 206.37353516 C121.36297288 204.35744782 120.16779941 202.34167396 118.97216797 200.32617188 C117.21095988 197.35579567 115.45205759 194.38407293 113.69396973 191.41184998 C105.29357396 177.21278747 96.84450782 163.04673895 88.25897217 148.95877075 C82.39593463 139.33573805 76.62543875 129.66042719 70.89355469 119.95874023 C64.50498476 109.14810683 58.04571682 98.38057322 51.57470703 87.61914062 C49.54754321 84.24744862 47.52347581 80.87390605 45.5 77.5 C44.80471191 76.34113119 44.10939848 75.18227758 43.4140625 74.0234375 C41.4921875 70.8203125 39.5703125 67.6171875 37.6484375 64.4140625 C37.03709961 63.39521973 36.42576172 62.37637695 35.79589844 61.32666016 C34.50989986 59.18322022 33.22409416 57.03966456 31.93847656 54.89599609 C28.65878971 49.42794676 25.37591828 43.96186283 22.0859375 38.5 C16.1866383 28.7004055 10.3079833 18.8907908 4.5625 9 C4.09553711 8.19836426 3.62857422 7.39672852 3.14746094 6.57080078 C0 1.12271308 0 1.12271308 0 0 Z " fill="#8E8F91" transform="translate(546,315)"/>
<path d="M0 0 C2.24493935 -0.00960505 4.48892142 -0.04062546 6.73364258 -0.07226562 C19.76801 -0.17039676 32.17969195 1.29700787 44.0949707 6.99023438 C44.85310059 7.34239014 45.61123047 7.6945459 46.39233398 8.05737305 C73.18166851 20.76044452 89.76552485 43.44126328 100.02075195 70.74414062 C103.36801282 80.31643728 105.11448499 90.27374716 106.8449707 100.24023438 C106.97629395 100.93391113 107.10761719 101.62758789 107.24291992 102.34228516 C113.94250771 137.73828404 107.7588324 182.39862509 87.59887695 212.70507812 C87.02008789 213.54167969 86.44129883 214.37828125 85.8449707 215.24023438 C82.76810991 213.86099586 80.58601749 212.2612254 78.1574707 209.93164062 C77.46403564 209.27172119 76.77060059 208.61180176 76.05615234 207.93188477 C74.96161743 206.87795532 74.96161743 206.87795532 73.8449707 205.80273438 C72.32336433 204.35426175 70.80122558 202.90634818 69.27856445 201.45898438 C68.52945801 200.74484375 67.78035156 200.03070312 67.00854492 199.29492188 C63.99941488 196.43723305 60.96213016 193.61162214 57.9074707 190.80273438 C56.97032227 189.93777344 56.03317383 189.0728125 55.06762695 188.18164062 C53.00421891 186.21503414 53.00421891 186.21503414 50.8449707 185.24023438 C50.8449707 184.58023438 50.8449707 183.92023438 50.8449707 183.24023438 C50.1849707 183.24023438 49.5249707 183.24023438 48.8449707 183.24023438 C48.0612207 182.39460937 47.2774707 181.54898438 46.4699707 180.67773438 C45.6037207 179.87335938 44.7374707 179.06898438 43.8449707 178.24023438 C40.43050156 178.50350646 38.86538067 179.90021853 36.63012695 182.38085938 C36.03264648 183.033125 35.43516602 183.68539062 34.81958008 184.35742188 C34.18858398 185.06125 33.55758789 185.76507812 32.9074707 186.49023438 C31.56692199 187.95551583 30.22444061 189.41903127 28.88012695 190.88085938 C28.2061084 191.61498047 27.53208984 192.34910156 26.83764648 193.10546875 C23.9193353 196.23187318 20.8919457 199.23995631 17.8449707 202.24023438 C10.87949029 208.84485137 10.87949029 208.84485137 4.8449707 216.24023438 C4.52853516 219.23990125 4.52853516 219.23990125 6.3137207 221.03710938 C6.9840332 221.68164062 7.6543457 222.32617188 8.3449707 222.99023438 C9.08618164 223.704375 9.82739258 224.41851563 10.59106445 225.15429688 C13.13485729 227.50851763 15.73297934 229.7851718 18.3605957 232.04492188 C21.85211368 235.13019405 25.25311066 238.30937039 28.6574707 241.49023438 C29.31626221 242.10527832 29.97505371 242.72032227 30.65380859 243.35400391 C34.18299484 246.65759458 34.18299484 246.65759458 35.8449707 248.24023438 C36.40788818 248.75811523 36.97080566 249.27599609 37.55078125 249.80957031 C38.8449707 251.24023438 38.8449707 251.24023438 38.8449707 253.24023438 C12.47568894 262.87156778 -15.55563071 261.42629636 -41.1550293 250.24023438 C-57.19468349 242.76721367 -70.77585796 230.18757556 -80.1550293 215.24023438 C-80.99614258 213.95826172 -80.99614258 213.95826172 -81.85424805 212.65039062 C-90.94222981 198.08919737 -96.05761799 182.01325064 -99.1550293 165.24023438 C-99.36772461 164.1909375 -99.58041992 163.14164063 -99.79956055 162.06054688 C-105.27736152 134.23804698 -104.02560303 102.24419183 -95.1550293 75.24023438 C-94.95039063 74.60746582 -94.74575195 73.97469727 -94.53491211 73.32275391 C-85.51092254 45.90682146 -68.2361563 22.54372231 -42.31518555 9.23242188 C-28.4022775 2.35432811 -15.43429725 0.03976631 0 0 Z " fill="#131313" transform="translate(342.155029296875,377.759765625)"/>
<path d="M0 0 C0.66 0 1.32 0 2 0 C2.51046875 1.17755859 2.51046875 1.17755859 3.03125 2.37890625 C8.05320028 13.26425062 13.78827324 18.82155554 25 23 C25 23.66 25 24.32 25 25 C24.21496094 25.3403125 23.42992187 25.680625 22.62109375 26.03125 C11.73574938 31.05320028 6.17844446 36.78827324 2 48 C1.34 48 0.68 48 0 48 C-0.3403125 47.21496094 -0.680625 46.42992187 -1.03125 45.62109375 C-6.05320028 34.73574938 -11.78827324 29.17844446 -23 25 C-23 24.34 -23 23.68 -23 23 C-22.21496094 22.6596875 -21.42992187 22.319375 -20.62109375 21.96875 C-9.73574938 16.94679972 -4.17844446 11.21172676 0 0 Z " fill="#868685" transform="translate(999,928)"/>
<path d="M0 0 C0.66 0 1.32 0 2 0 C2.02710123 2.5625718 2.04688771 5.12485365 2.0625 7.6875 C2.07087891 8.40873047 2.07925781 9.12996094 2.08789062 9.87304688 C2.10543632 13.71555382 1.93524221 17.26639526 1 21 C-1 19 -1 19 -1.13525391 17.02880859 C-1.08288574 16.24328613 -1.03051758 15.45776367 -0.9765625 14.6484375 C-0.925 13.79765625 -0.8734375 12.946875 -0.8203125 12.0703125 C-0.75585938 11.18085938 -0.69140625 10.29140625 -0.625 9.375 C-0.56828125 8.4778125 -0.5115625 7.580625 -0.453125 6.65625 C-0.31145247 4.43671376 -0.1600296 2.21827598 0 0 Z " fill="#0B0E0D" transform="translate(534,440)"/>
<path d="M0 0 C0.99 0.33 1.98 0.66 3 1 C0.66666667 3.33333333 -1.66666667 5.66666667 -4 8 C-4.99 7.67 -5.98 7.34 -7 7 C-4.69 4.69 -2.38 2.38 0 0 Z " fill="#838485" transform="translate(383,555)"/>
<path d="M0 0 C0.99 0 1.98 0 3 0 C2.8125 2.375 2.8125 2.375 2 5 C-0.5625 6.3125 -0.5625 6.3125 -3 7 C-1.125 2.25 -1.125 2.25 0 0 Z " fill="#181A18" transform="translate(795,510)"/>
<path d="M0 0 C0 2.64 0 5.28 0 8 C-1.32 7.34 -2.64 6.68 -4 6 C-4 3 -4 3 -2.5625 1.3125 C-1 0 -1 0 0 0 Z " fill="#0C0C0A" transform="translate(528,585)"/>
<path d="M0 0 C0.99 0.33 1.98 0.66 3 1 C0.6875 3.5 0.6875 3.5 -2 6 C-2.99 6 -3.98 6 -5 6 C-3.35 4.02 -1.7 2.04 0 0 Z " fill="#888A8A" transform="translate(350,589)"/>
<path d="M0 0 C0.66 0.33 1.32 0.66 2 1 C2.05399736 2.45792884 2.09279177 3.91642712 2.125 5.375 C2.14820313 6.18710937 2.17140625 6.99921875 2.1953125 7.8359375 C2 10 2 10 0 12 C-0.19401633 10.18818595 -0.38004375 8.37551468 -0.5625 6.5625 C-0.66691406 5.55316406 -0.77132813 4.54382813 -0.87890625 3.50390625 C-0.91886719 2.67761719 -0.95882813 1.85132813 -1 1 C-0.67 0.67 -0.34 0.34 0 0 Z " fill="#98999A" transform="translate(446,555)"/>
<path d="M0 0 C0.66 1.32 1.32 2.64 2 4 C0.68 4.99 -0.64 5.98 -2 7 C-2 5.02 -2 3.04 -2 1 C-1.34 0.67 -0.68 0.34 0 0 Z " fill="#0C0E0B" transform="translate(202,359)"/>
<path d="M0 0 C0.33 0 0.66 0 1 0 C1.25 2.3125 1.25 2.3125 1 5 C-1 6.8125 -1 6.8125 -3 8 C-2.45276317 4.62537285 -1.9451 2.91765 0 0 Z " fill="#1E1E1D" transform="translate(445,462)"/>
</svg>
