<?xml version="1.0" encoding="UTF-8" standalone="no"?>
<svg
   version="1.1"
   width="1056"
   height="1056"
   id="svg13"
   sodipodi:docname="QYlogo.svg"
   inkscape:export-filename="favicon.png"
   inkscape:export-xdpi="4.3636365"
   inkscape:export-ydpi="4.3636365"
   inkscape:version="1.4.3 (0d15f75, 2025-12-25)"
   xmlns:inkscape="http://www.inkscape.org/namespaces/inkscape"
   xmlns:sodipodi="http://sodipodi.sourceforge.net/DTD/sodipodi-0.dtd"
   xmlns="http://www.w3.org/2000/svg"
   xmlns:svg="http://www.w3.org/2000/svg">
  <defs
     id="defs13" />
  <sodipodi:namedview
     id="namedview13"
     pagecolor="#ffffff"
     bordercolor="#cccccc"
     borderopacity="1"
     inkscape:showpageshadow="0"
     inkscape:pageopacity="1"
     inkscape:pagecheckerboard="0"
     inkscape:deskcolor="#d1d1d1"
     inkscape:zoom="0.27054421"
     inkscape:cx="532.26052"
     inkscape:cy="399.19539"
     inkscape:window-width="1063"
     inkscape:window-height="675"
     inkscape:window-x="0"
     inkscape:window-y="38"
     inkscape:window-maximized="0"
     inkscape:current-layer="svg13" />
  <path
     d="m 0,1.9990723e-5 c 348.48,0 696.96,0 1056,0 C 1056,348.48003 1056,696.96003 1056,1056 707.52,1056 359.04,1056 0,1056 0,707.52003 0,359.04003 0,1.9990723e-5 Z"
     fill="#131312"
     id="path1"
     style="stroke-width:1.02353" />
  <path
     d="m 402.11891,311.00003 c 0.97324,0.2127 1.94648,0.4254 2.94922,0.6445 28.17037,6.8547 54.64272,21.7235 75.8164,41.3125 1.88389,1.7225 3.80573,3.3241 5.79688,4.918 4.81378,4.1035 8.5641,9.1561 12.4375,14.125 0.74508,0.941 1.49016,1.882 2.25781,2.8515 22.80679,29.482 36.47056,67.0963 39.74219,104.1485 0.0832,0.901 0.16645,1.8021 0.2522,2.7305 4.71996,54.9911 -5.08463,115.5801 -41.5647,159.0234 -0.7425,0.8856 -1.485,1.7712 -2.25,2.6836 -0.68191,0.7824 -1.36383,1.5649 -2.06641,2.3711 -1.59217,2.0387 -1.59217,2.0387 -1.15039,4.1279 0.91769,2.4299 1.96268,3.5276 3.87696,5.2705 0.63293,0.5832 1.26586,1.1665 1.91796,1.7673 0.67547,0.6066 1.35094,1.2132 2.04688,1.8382 0.68449,0.6265 1.36898,1.2531 2.07422,1.8987 4.00629,3.6554 8.06368,7.2488 12.17578,10.7849 2.40591,2.1441 4.63859,4.4462 6.89844,6.7422 4.64134,4.5704 9.65865,8.7536 14.78906,12.7617 -1.36944,2.9495 -2.8783,5.5247 -5,8 -0.66,0 -1.32,0 -2,0 0,0.66 0,1.32 0,2 -1.62488,1.7308 -3.28395,3.3623 -5,5 -1.3228,1.3061 -2.6429,2.6149 -3.96094,3.9258 -0.71929,0.7147 -1.43859,1.4295 -2.17969,2.166 -0.73734,0.7328 -1.47468,1.4656 -2.23437,2.2207 -0.72961,0.7212 -1.45922,1.4424 -2.21094,2.1855 -4.1442,4.1257 -8.09456,8.3294 -11.85034,12.8133 -2.26152,2.4423 -4.70056,4.0127 -7.56372,5.6887 -10.77729,-9.6567 -21.42584,-19.4398 -31.97119,-29.3484 -6.30703,-5.923 -12.65991,-11.7953 -19.02881,-17.6516 -4.54079,1.3897 -8.79994,3.1948 -13.12891,5.1223 -16.90537,7.4976 -33.63606,11.8936 -51.87109,14.8777 -1.04438,0.1772 -2.08877,0.3545 -3.1648,0.5371 -4.64487,0.5606 -9.20397,0.6441 -13.87817,0.666 -0.96368,0.01 -1.92736,0.011 -2.92024,0.017 -2.03984,0.01 -4.0797,0.016 -6.11955,0.02 -3.05018,0.01 -6.09965,0.041 -9.14966,0.072 -16.26766,0.088 -32.11242,-1.4547 -47.89258,-5.5625 -0.81509,-0.2091 -1.63018,-0.4182 -2.46997,-0.6336 -8.75127,-2.3385 -17.09704,-5.5297 -25.40503,-9.1164 -0.70721,-0.3028 -1.41442,-0.6056 -2.14307,-0.9175 -16.19327,-7.0239 -31.26361,-15.7884 -44.34228,-27.7031 -1.54123,-1.4036 -3.10036,-2.785 -4.66309,-4.1646 -20.82122,-18.5287 -37.49963,-42.8532 -46.85156,-69.2148 -0.35868,-0.9963 -0.35868,-0.9963 -0.72461,-2.0127 -3.14414,-8.7997 -5.83584,-17.5187 -7.62695,-26.7061 -0.63822,-3.2295 -1.41263,-6.4005 -2.21094,-9.5937 -3.48293,-15.2507 -3.83978,-30.5555 -3.8125,-46.125 -4.5e-4,-1.0091 -9.1e-4,-2.0182 -0.001,-3.0578 0.0209,-15.8508 0.99377,-30.9727 4.37637,-46.5047 0.23848,-1.222 0.47695,-2.4441 0.72266,-3.7031 0.65784,-3.1356 1.4418,-6.204 2.27734,-9.2969 0.18756,-0.7393 0.37512,-1.4786 0.56836,-2.2403 4.80531,-18.8811 12.19055,-36.1848 22.43164,-52.7597 0.6007,-0.9771 1.20141,-1.9542 1.82031,-2.961 11.79973,-18.4154 26.44145,-34.2975 44.17969,-47.039 0.53867,-0.399 1.07733,-0.7979 1.63232,-1.209 17.39186,-12.8232 37.47504,-21.5734 58.36768,-26.791 0.71043,-0.19 1.42087,-0.38 2.15283,-0.5757 34.74859,-9.2787 71.99511,-8.4826 106.84717,-0.4243 z"
     fill="#8e8f91"
     id="path2" />
  <path
     d="m 550.11891,315.00003 c 12.69101,-0.1853 25.38169,-0.3275 38.07378,-0.4145 5.89345,-0.042 11.78598,-0.098 17.67891,-0.189 5.68645,-0.087 11.37202,-0.1348 17.05909,-0.1555 2.17026,-0.015 4.34048,-0.044 6.51037,-0.087 3.03911,-0.058 6.07455,-0.066 9.11413,-0.062 0.89839,-0.029 1.79679,-0.057 2.72241,-0.087 2.52269,0.033 4.4653,0.1409 6.84131,0.9954 2.27297,2.4124 3.61506,5.0117 5,8 0.58,0.9691 1.15999,1.9382 1.75757,2.9368 1.72828,2.9576 3.45585,5.9156 5.17993,8.8757 0.5949,1.0164 1.1898,2.0328 1.80273,3.0801 3.33075,5.7114 6.57355,11.4593 9.72095,17.2736 2.88943,5.3209 5.845,10.6054 8.78882,15.8963 0.66492,1.1957 1.32979,2.3914 1.99463,3.5871 0.99439,1.7885 1.98881,3.5768 2.98343,5.3651 1.88679,3.3925 3.77184,6.786 5.65475,10.1806 3.89801,7.0273 7.80549,14.049 11.74219,21.0547 0.32404,0.5771 0.64808,1.1542 0.98193,1.7488 4.8044,8.5344 9.68735,17.0247 14.55576,25.5228 1.38946,2.4256 2.77823,4.8516 4.1669,7.2777 0.70731,1.2352 1.41501,2.4703 2.12305,3.7051 1.04544,1.8235 2.0895,3.6477 3.1333,5.4721 0.60892,1.063 1.21784,2.126 1.84521,3.2212 1.25593,2.2434 2.44825,4.4894 3.56885,6.8023 5.09947,-9.0411 10.17923,-18.0923 15.19678,-27.1792 3.86465,-6.98 7.83595,-13.8989 11.80322,-20.8208 8.35206,-14.577 16.67192,-29.1661 24.8479,-43.8428 4.53731,-8.1193 9.22648,-16.1431 13.94434,-24.1584 4.93359,-8.4282 9.60789,-16.9857 14.20996,-25.5987 0.51103,-0.9557 1.02206,-1.9115 1.54858,-2.8962 0.45029,-0.8475 0.90057,-1.695 1.3645,-2.5681 1.08472,-1.9358 1.08472,-1.9358 2.08472,-2.9358 3.04402,-0.095 6.06532,-0.1255 9.10962,-0.1135 0.95599,-2e-4 1.91199,-3e-4 2.89696,-5e-4 3.17621,7e-4 6.35237,0.01 9.52858,0.016 2.19575,0 4.39151,0 6.58726,0 5.79179,0 11.58355,0.014 17.37532,0.025 5.90505,0.01 11.8101,0.015 17.71515,0.02 11.59571,0.011 23.19141,0.028 34.78711,0.049 -1.94948,4.6399 -3.97791,8.8236 -6.67578,13.0976 -0.71341,1.1393 -1.42645,2.2788 -2.13916,3.4185 -0.36273,0.577 -0.72546,1.1539 -1.09918,1.7483 -1.73368,2.771 -3.43037,5.5641 -5.12885,8.3567 -0.6749,1.1091 -1.34981,2.2183 -2.04517,3.3611 -0.69988,1.1517 -1.39966,2.3035 -2.09936,3.4553 -0.36423,0.5993 -0.72846,1.1987 -1.10373,1.8162 -5.48372,9.0278 -10.90867,18.088 -16.24661,27.2031 -2.72595,4.6462 -5.50578,9.2533 -8.33716,13.8362 -4.10352,6.6459 -8.09354,13.355 -12.0625,20.082 -1.41342,2.391 -2.82778,4.7814 -4.24219,7.1719 -0.66612,1.126 -1.33224,2.252 -2.01855,3.4121 -3.16026,5.3339 -6.3517,10.6488 -9.54932,15.9604 -8.69131,14.4381 -17.34299,28.8987 -25.93994,43.3931 -6.60313,11.1327 -13.22942,22.2508 -19.90332,33.3413 -1.52328,2.5361 -3.04089,5.0756 -4.55762,7.6157 -0.52924,0.8853 -1.05848,1.7705 -1.60376,2.6826 -0.99386,1.6627 -1.98665,3.3261 -2.97803,4.9903 -0.4564,0.7628 -0.91281,1.5256 -1.38305,2.3115 -0.43007,0.7309 -0.86014,1.4619 -1.30324,2.215 -1.58348,2.5311 -1.58348,2.5311 -3.36547,4.8631 -5.74194,7.8159 -6.2163,14.5012 -6.10449,23.9617 -0.008,1.509 -0.0189,3.018 -0.0326,4.527 -0.0285,4.0636 -0.0146,8.1261 0.007,12.1898 0.0157,4.2588 -0.008,8.5174 -0.0279,12.7762 -0.0312,8.0498 -0.027,16.0992 -0.01,24.149 0.021,10.8881 -0.0129,21.7761 -0.0437,32.6641 -0.047,17.1336 -0.0209,34.2663 -0.007,51.4002 -28.71,0 -57.42,0 -87,0 0.0206,-10.8823 0.0412,-21.7645 0.0625,-32.9766 -0.005,-6.9089 -0.0115,-13.8177 -0.0273,-20.7265 -0.0248,-10.9575 -0.0415,-21.9146 -0.004,-32.8721 0.027,-7.9821 0.0256,-15.9635 -0.009,-23.9455 -0.0173,-4.2218 -0.021,-8.4424 0.009,-12.6641 0.0282,-3.9847 0.018,-7.9677 -0.0198,-11.9523 -0.007,-1.4519 -10e-4,-2.9039 0.0198,-4.3556 0.15578,-11.5187 -2.79464,-18.1495 -9.03102,-27.5073 -0.99689,-1.6783 -1.98519,-3.3618 -2.95703,-5.0547 -0.95064,-1.6075 -1.9025,-3.2142 -2.85547,-4.8203 -0.53786,-0.908 -1.07572,-1.816 -1.62988,-2.7515 -1.19465,-2.0161 -2.38982,-4.0318 -3.58545,-6.0473 -1.76121,-2.9704 -3.52011,-5.9421 -5.2782,-8.9144 -8.4004,-14.199 -16.84946,-28.3651 -25.435,-42.453 -5.86304,-9.6231 -11.63353,-19.2984 -17.36542,-29.0001 -6.38857,-10.8106 -12.84783,-21.5781 -19.31884,-32.3396 -2.02717,-3.3717 -4.05123,-6.7452 -6.07471,-10.1191 -0.69529,-1.1589 -1.3906,-2.3177 -2.08594,-3.4766 -1.92187,-3.2031 -3.84375,-6.4062 -5.76562,-9.6094 -0.61134,-1.0188 -1.22268,-2.0376 -1.85254,-3.0874 -1.286,-2.1434 -2.57181,-4.287 -3.85742,-6.4306 -3.27969,-5.4681 -6.56256,-10.9342 -9.85254,-16.396 -5.8993,-9.7996 -11.77796,-19.6092 -17.52344,-29.5 -0.46696,-0.8017 -0.93393,-1.6033 -1.41504,-2.4292 -3.14746,-5.4481 -3.14746,-5.4481 -3.14746,-6.5708 z"
     fill="#8e8f91"
     id="path3" />
  <path
     d="m 346.27394,377.75973 c 2.24494,-0.01 4.48892,-0.041 6.73364,-0.072 13.03437,-0.098 25.44605,1.3693 37.36133,7.0625 0.75813,0.3521 1.51626,0.7043 2.29736,1.0671 26.78934,12.7031 43.37319,35.3839 53.62842,62.6868 3.34726,9.5723 5.09373,19.5296 6.82422,29.4961 0.13132,0.6937 0.26265,1.3873 0.39795,2.102 6.69959,35.396 0.51591,80.0564 -19.64404,110.3628 -0.57879,0.8366 -1.15758,1.6732 -1.75391,2.5352 -3.07686,-1.3793 -5.25895,-2.979 -7.6875,-5.3086 -0.69344,-0.6599 -1.38687,-1.3198 -2.10132,-1.9998 -1.09453,-1.0539 -1.09453,-1.0539 -2.21118,-2.1291 -1.52161,-1.4485 -3.04375,-2.8964 -4.56641,-4.3438 -0.7491,-0.7141 -1.49821,-1.4282 -2.27002,-2.164 -3.00913,-2.8577 -6.04641,-5.6833 -9.10107,-8.4922 -0.93715,-0.865 -1.8743,-1.7299 -2.83984,-2.6211 -2.06341,-1.9666 -2.06341,-1.9666 -4.22266,-2.9414 0,-0.66 0,-1.32 0,-2 -0.66,0 -1.32,0 -2,0 -0.78375,-0.8456 -1.5675,-1.6913 -2.375,-2.5625 -0.86625,-0.8044 -1.7325,-1.6088 -2.625,-2.4375 -3.41447,0.2633 -4.97959,1.66 -7.21484,4.1406 -0.59748,0.6523 -1.19497,1.3045 -1.81055,1.9766 -0.631,0.7038 -1.26199,1.4076 -1.91211,2.1328 -1.34055,1.4653 -2.68303,2.9288 -4.02734,4.3906 -0.67402,0.7341 -1.34804,1.4683 -2.04248,2.2246 -2.91832,3.1264 -5.94571,6.1345 -8.99268,9.1348 -6.96548,6.6046 -6.96548,6.6046 -13,14 -0.31644,2.9996 -0.31644,2.9996 1.46875,4.7969 0.67031,0.6445 1.34062,1.289 2.03125,1.9531 0.74121,0.7141 1.48242,1.4283 2.24609,2.164 2.5438,2.3543 5.14192,4.6309 7.76953,6.8907 3.49152,3.0852 6.89252,6.2644 10.29688,9.4453 0.65879,0.615 1.31758,1.2301 1.99634,1.8638 3.52918,3.3035 3.52918,3.3035 5.19116,4.8862 0.56292,0.5179 1.12583,1.0357 1.70581,1.5693 1.29419,1.4307 1.29419,1.4307 1.29419,3.4307 -26.36928,9.6313 -54.4006,8.186 -80,-3 -16.03965,-7.473 -29.62083,-20.0527 -39,-35 -0.84111,-1.282 -0.84111,-1.282 -1.69922,-2.5899 -9.08798,-14.5612 -14.20337,-30.6371 -17.30078,-47.4101 -0.2127,-1.0493 -0.42539,-2.0986 -0.64453,-3.1797 -5.4778,-27.8225 -4.22604,-59.8164 4.64453,-86.8203 0.20464,-0.6328 0.40928,-1.2656 0.62012,-1.9175 9.02399,-27.4159 26.29875,-50.779 52.21972,-64.0903 13.91291,-6.8781 26.88089,-9.1927 42.31519,-9.2325 z"
     fill="#131313"
     id="path4" />
  <path
     d="m 538.11891,440.00003 c 0.66,0 1.32,0 2,0 0.0271,2.5626 0.0469,5.1248 0.0625,7.6875 0.008,0.7212 0.0168,1.4424 0.0254,2.1855 0.0176,3.8425 -0.15265,7.3934 -1.08789,11.127 -2,-2 -2,-2 -2.13525,-3.9712 0.0524,-0.7855 0.10473,-1.5711 0.15869,-2.3804 0.0516,-0.8508 0.10312,-1.7015 0.15625,-2.5781 0.0644,-0.8895 0.1289,-1.7789 0.19531,-2.6953 0.0567,-0.8972 0.11344,-1.7944 0.17187,-2.7188 0.14168,-2.2195 0.2931,-4.4379 0.45313,-6.6562 z"
     fill="#0b0e0d"
     id="path6" />
  <path
     d="m 387.11891,555.00003 c 0.99,0.33 1.98,0.66 3,1 -2.33333,2.3333 -4.66667,4.6666 -7,7 -0.99,-0.33 -1.98,-0.66 -3,-1 2.31,-2.31 4.62,-4.62 7,-7 z"
     fill="#838485"
     id="path7" />
  <path
     d="m 799.11891,510.00003 c 0.99,0 1.98,0 3,0 -0.1875,2.375 -0.1875,2.375 -1,5 -2.5625,1.3125 -2.5625,1.3125 -5,2 1.875,-4.75 1.875,-4.75 3,-7 z"
     fill="#181a18"
     id="path8" />
  <path
     d="m 532.11891,585.00003 c 0,2.64 0,5.28 0,8 -1.32,-0.66 -2.64,-1.32 -4,-2 0,-3 0,-3 1.4375,-4.6875 1.5625,-1.3125 1.5625,-1.3125 2.5625,-1.3125 z"
     fill="#0c0c0a"
     id="path9" />
  <path
     d="m 354.11891,589.00003 c 0.99,0.33 1.98,0.66 3,1 -2.3125,2.5 -2.3125,2.5 -5,5 -0.99,0 -1.98,0 -3,0 1.65,-1.98 3.3,-3.96 5,-6 z"
     fill="#888a8a"
     id="path10" />
  <path
     d="m 450.11891,555.00003 c 0.66,0.33 1.32,0.66 2,1 0.054,1.4579 0.0928,2.9164 0.125,4.375 0.0232,0.8121 0.0464,1.6242 0.0703,2.4609 -0.19531,2.1641 -0.19531,2.1641 -2.19531,4.1641 -0.19402,-1.8118 -0.38004,-3.6245 -0.5625,-5.4375 -0.10441,-1.0094 -0.20883,-2.0187 -0.31641,-3.0586 -0.04,-0.8263 -0.0799,-1.6526 -0.12109,-2.5039 0.33,-0.33 0.66,-0.66 1,-1 z"
     fill="#98999a"
     id="path11" />
  <path
     d="m 206.11891,359.00003 c 0.66,1.32 1.32,2.64 2,4 -1.32,0.99 -2.64,1.98 -4,3 0,-1.98 0,-3.96 0,-6 0.66,-0.33 1.32,-0.66 2,-1 z"
     fill="#0c0e0b"
     id="path12" />
  <path
     d="m 449.11891,462.00003 c 0.33,0 0.66,0 1,0 0.25,2.3125 0.25,2.3125 0,5 -2,1.8125 -2,1.8125 -4,3 0.54724,-3.3746 1.0549,-5.0824 3,-8 z"
     fill="#1e1e1d"
     id="path13" />
</svg>
